# xmcd
#
# Track frame offsets:
#	150
#	15129
#	29653
#	48857
#	60294
#	76794
#	93176
#	110254
#	120720
#	137994
#	151505
#	167600
#	179778
#
# Disc length: 2618 seconds
#
# Revision: 2
# Processed by: cddbd v1.4PL0 Copyright (c) Steve Scherf et al.
# Submitted via: audiograbber 1.80
#
DISCID=910a380d
DTITLE=Ronny J Morson and New Frontier - Wall of Sound
DYEAR=1900
DGENRE=
TTITLE0=I would walk a million miles
TTITLE1=There's a fool born everyday
TTITLE2=I don't miss you anymore
TTITLE3=Thunder road
TTITLE4=Darlin' I'm over you
TTITLE5=This towns tears
TTITLE6=Black day in my heart
TTITLE7=Bet you wish you hadn't left me now
TTITLE8=Wall of sound
TTITLE9=Me without you
TTITLE10=I still hold you
TTITLE11=I won't let you let me down again
TTITLE12=When you call
EXTD=New Frontier are: Billy Frank and Dave Gray
EXTT0=
EXTT1=
EXTT2=
EXTT3=
EXTT4=
EXTT5=
EXTT6=
EXTT7=
EXTT8=
EXTT9=
EXTT10=
EXTT11=
EXTT12=Dedicated to Alice Frank (1965 - 2001)
PLAYORDER=
